# xmcd
#
# Track frame offsets: 
#        150
#        12600
#        24590
#        34820
#        49867
#        60227
#        75105
#        93840
#        112712
#        127750
#        146130
#        166155
#        180785
#
# Disc length: 2613 seconds
#
# Revision: 1
# Processed by: cddbd v1.5.1PL0 Copyright (c) Steve Scherf et al.
# Submitted via: ExactAudioCopy v0.95a4
#
DISCID=8b0a330d
DTITLE=Chet Atkins - Chet Picks On The Grammys
DYEAR=1900
DGENRE=
TTITLE0=Tears
TTITLE1=Nut Sunday
TTITLE2=Snowbird
TTITLE3=I'll See You In My Dreams
TTITLE4=The Entertainer
TTITLE5=Caravan
TTITLE6=Ready For The Times To Get Better
TTITLE7=Cosmic Square Dance
TTITLE8=So Soft, Your Goodbye
TTITLE9=Poor Boy Blues
TTITLE10=Sneakin' Around
TTITLE11=Young Thing
TTITLE12=Jam Man
EXTD=
EXTT0=
EXTT1=
EXTT2=
EXTT3=
EXTT4=
EXTT5=
EXTT6=
EXTT7=
EXTT8=
EXTT9=
EXTT10=
EXTT11=
EXTT12=
PLAYORDER=
